<svg viewBox="0 0 3000 1251" fill="none" xmlns="http://www.w3.org/2000/svg">
<path d="M2367.87 0L2277.3 249.044L2112.38 702.47L2111.99 702.123C2054.84 651.657 1974.35 620.127 1872.64 608.262L1841.69 605.1L1872.43 601.331C2039.88 571.242 2152.47 465.378 2152.47 337.85C2152.47 162.966 1988.11 40.911 1752.69 40.911H1262.85V49.6317H1405.18V953.269L1059.47 0.799096L1059.16 0.0173889H1050.46L959.884 249.062L610.534 1209.68L608.382 1209.92C602.375 1210.67 596.491 1211.24 590.658 1211.68C581.874 1212.37 573.125 1212.79 564.376 1212.79H211.346L882.376 49.6143L887.428 40.8936H66.676V400.719H75.3729C76.9178 225.436 178.919 49.6143 404.257 49.6143H676.099L0 1221.51H910.845V876.781H902.131C900.95 1029.51 814.416 1174.71 626.244 1207.39L620.29 1208.41H620.255L763.606 814.224H1165.02L1309.67 1212.79H1166.98V1221.51H1727.05V1212.79H1583.85V611.632H1749.2C1917.44 611.632 2013.96 686.853 2013.96 817.976V924.623C2013.96 936.384 2014.77 953.565 2015.64 967.914V968.001L2015.66 968.452L1926.78 1212.79H1810.56V1221.51H2050.9V1212.79H1936.03L2016.96 990.289V990.358C2017.14 992.513 2017.22 993.798 2017.22 993.798L2019.46 1013.86L2021.61 1027.13C2035.08 1109.17 2066.45 1169.5 2114.75 1206.48L2121.71 1211.54C2158.42 1237.06 2204.02 1250 2257.37 1250C2328 1250 2375.08 1232.38 2413.96 1190.9L2408.88 1185.86C2373.17 1218.87 2343 1232.38 2305.31 1232.38C2241.14 1232.38 2207.53 1154.45 2207.53 1077.62V928.202C2207.53 889.01 2201.77 852.269 2190.38 819.019L2188.76 814.38L2188.71 814.224H2482.39L2627.04 1212.79H2484.35V1221.51H2969V1212.79H2816.73L2376.85 0.799096L2376.55 0.0173889H2367.87V0ZM1583.84 49.7012H1710.04C1878.63 49.7012 1967.71 149.937 1967.71 339.605C1967.71 541.31 1916.63 602.842 1749.16 602.842H1583.82V49.7012H1583.84ZM2119.38 708.724L2281.91 261.796L2479.23 805.486H2185.33L2184.48 803.349C2171.32 771.298 2152.45 742.53 2128.49 717.792L2120.27 709.541L2119.38 708.724ZM964.537 261.796L1161.86 805.486H766.765L964.537 261.796Z" fill="url(#paint0_linear_1060_40)"/>
<defs>
<linearGradient id="paint0_linear_1060_40" x1="0.00295103" y1="624.997" x2="2968.99" y2="624.997" gradientUnits="userSpaceOnUse">
<stop offset="0.0356" stop-color="#FDC7CE"/>
<stop offset="0.1" stop-color="#2CC7FF"/>
<stop offset="0.2" stop-color="#A67C4F"/>
<stop offset="0.3" stop-color="#231F20"/>
<stop offset="0.4" stop-color="#E91C24"/>
<stop offset="0.5" stop-color="#F4921D"/>
<stop offset="0.6" stop-color="#FDDC15"/>
<stop offset="0.7" stop-color="#109147"/>
<stop offset="0.8" stop-color="#1428D0"/>
<stop offset="0.8839" stop-color="white"/>
<stop offset="0.9527" stop-color="#552A78"/>
</linearGradient>
</defs>
</svg>
